<mxfile host="app.diagrams.net" modified="2024-05-27T21:01:17.753Z" agent="Mozilla/5.0 (Windows NT 10.0; Win64; x64) AppleWebKit/537.36 (KHTML, like Gecko) Chrome/124.0.0.0 Safari/537.36" etag="VF1YiDMGOf6MKLsNEstS" version="24.2.5" type="github">
  <diagram name="Page-1" id="p65KH_vCwlCSbU4K32qI">
    <mxGraphModel dx="2074" dy="2198" grid="1" gridSize="10" guides="1" tooltips="1" connect="1" arrows="1" fold="1" page="1" pageScale="1" pageWidth="850" pageHeight="1100" math="0" shadow="0">
      <root>
        <mxCell id="0" />
        <mxCell id="1" parent="0" />
        <mxCell id="vgpXesxMThB6djMiU0Mu-16" style="edgeStyle=orthogonalEdgeStyle;rounded=0;orthogonalLoop=1;jettySize=auto;html=1;" parent="1" source="vgpXesxMThB6djMiU0Mu-1" edge="1">
          <mxGeometry relative="1" as="geometry">
            <mxPoint x="330" y="-840" as="targetPoint" />
            <Array as="points">
              <mxPoint x="331" y="-968" />
            </Array>
          </mxGeometry>
        </mxCell>
        <mxCell id="vgpXesxMThB6djMiU0Mu-1" value="Splunk Server&lt;div&gt;IP: 192.168.1.10&lt;/div&gt;" style="outlineConnect=0;dashed=0;verticalLabelPosition=bottom;verticalAlign=top;align=center;html=1;shape=mxgraph.aws3.traditional_server;fillColor=#7D7C7C;gradientColor=none;" parent="1" vertex="1">
          <mxGeometry x="110" y="-1000" width="46.5" height="63" as="geometry" />
        </mxCell>
        <mxCell id="vgpXesxMThB6djMiU0Mu-18" style="edgeStyle=orthogonalEdgeStyle;rounded=0;orthogonalLoop=1;jettySize=auto;html=1;" parent="1" source="vgpXesxMThB6djMiU0Mu-2" edge="1">
          <mxGeometry relative="1" as="geometry">
            <mxPoint x="330" y="-840" as="targetPoint" />
          </mxGeometry>
        </mxCell>
        <mxCell id="vgpXesxMThB6djMiU0Mu-2" value="Proxmox&lt;div&gt;IP: 192.168.1.69&lt;/div&gt;" style="outlineConnect=0;dashed=0;verticalLabelPosition=bottom;verticalAlign=top;align=center;html=1;shape=mxgraph.aws3.traditional_server;fillColor=#7D7C7C;gradientColor=none;" parent="1" vertex="1">
          <mxGeometry x="110" y="-740" width="46.5" height="63" as="geometry" />
        </mxCell>
        <mxCell id="vgpXesxMThB6djMiU0Mu-3" value="Active Directory&lt;div&gt;IP: 192.168.1.5&lt;/div&gt;&lt;div&gt;Splunk Universal Forwarder&lt;/div&gt;&lt;div&gt;Sysmon&lt;/div&gt;" style="outlineConnect=0;dashed=0;verticalLabelPosition=bottom;verticalAlign=top;align=center;html=1;shape=mxgraph.aws3.traditional_server;fillColor=#7D7C7C;gradientColor=none;" parent="1" vertex="1">
          <mxGeometry x="110" y="-870" width="46.5" height="63" as="geometry" />
        </mxCell>
        <mxCell id="vgpXesxMThB6djMiU0Mu-5" value="" style="sketch=0;points=[[0.015,0.015,0],[0.985,0.015,0],[0.985,0.985,0],[0.015,0.985,0],[0.25,0,0],[0.5,0,0],[0.75,0,0],[1,0.25,0],[1,0.5,0],[1,0.75,0],[0.75,1,0],[0.5,1,0],[0.25,1,0],[0,0.75,0],[0,0.5,0],[0,0.25,0]];verticalLabelPosition=bottom;html=1;verticalAlign=top;aspect=fixed;align=center;pointerEvents=1;shape=mxgraph.cisco19.rect;prIcon=l2_switch;fillColor=#FAFAFA;strokeColor=#005073;" parent="1" vertex="1">
          <mxGeometry x="470" y="-863.5" width="50" height="50" as="geometry" />
        </mxCell>
        <mxCell id="TbSjnPhlNsivOu9u17FA-1" style="edgeStyle=orthogonalEdgeStyle;rounded=0;orthogonalLoop=1;jettySize=auto;html=1;exitX=0.5;exitY=0;exitDx=0;exitDy=0;exitPerimeter=0;" edge="1" parent="1" source="vgpXesxMThB6djMiU0Mu-6">
          <mxGeometry relative="1" as="geometry">
            <mxPoint x="740" y="-550" as="targetPoint" />
          </mxGeometry>
        </mxCell>
        <mxCell id="vgpXesxMThB6djMiU0Mu-6" value="Kali Linux" style="verticalLabelPosition=bottom;html=1;verticalAlign=top;align=center;strokeColor=#b85450;fillColor=#f8cecc;shape=mxgraph.azure.computer;pointerEvents=1;" parent="1" vertex="1">
          <mxGeometry x="700" y="-540" width="50" height="45" as="geometry" />
        </mxCell>
        <mxCell id="vgpXesxMThB6djMiU0Mu-23" style="rounded=0;orthogonalLoop=1;jettySize=auto;html=1;dashed=1;endArrow=none;endFill=0;" parent="1" source="vgpXesxMThB6djMiU0Mu-7" target="vgpXesxMThB6djMiU0Mu-3" edge="1">
          <mxGeometry relative="1" as="geometry" />
        </mxCell>
        <mxCell id="vgpXesxMThB6djMiU0Mu-7" value="Windows 11&lt;div&gt;IP: DHCP&lt;/div&gt;&lt;div&gt;Splunk Universal Forwarder&lt;/div&gt;&lt;div&gt;Sysmon&lt;/div&gt;&lt;div&gt;Atomic Red Team&lt;/div&gt;" style="verticalLabelPosition=bottom;html=1;verticalAlign=top;align=center;strokeColor=none;fillColor=#00BEF2;shape=mxgraph.azure.computer;pointerEvents=1;" parent="1" vertex="1">
          <mxGeometry x="470" y="-510" width="50" height="45" as="geometry" />
        </mxCell>
        <mxCell id="vgpXesxMThB6djMiU0Mu-21" style="edgeStyle=orthogonalEdgeStyle;rounded=0;orthogonalLoop=1;jettySize=auto;html=1;" parent="1" source="vgpXesxMThB6djMiU0Mu-8" target="vgpXesxMThB6djMiU0Mu-9" edge="1">
          <mxGeometry relative="1" as="geometry" />
        </mxCell>
        <mxCell id="vgpXesxMThB6djMiU0Mu-8" value="" style="sketch=0;points=[[0.5,0,0],[1,0.5,0],[0.5,1,0],[0,0.5,0],[0.145,0.145,0],[0.8555,0.145,0],[0.855,0.8555,0],[0.145,0.855,0]];verticalLabelPosition=bottom;html=1;verticalAlign=top;aspect=fixed;align=center;pointerEvents=1;shape=mxgraph.cisco19.rect;prIcon=router;fillColor=#FAFAFA;strokeColor=#005073;" parent="1" vertex="1">
          <mxGeometry x="470" y="-960" width="50" height="50" as="geometry" />
        </mxCell>
        <mxCell id="vgpXesxMThB6djMiU0Mu-9" value="" style="image;aspect=fixed;perimeter=ellipsePerimeter;html=1;align=center;shadow=0;dashed=0;spacingTop=3;image=img/lib/active_directory/internet_cloud.svg;" parent="1" vertex="1">
          <mxGeometry x="470" y="-1070" width="50" height="31.5" as="geometry" />
        </mxCell>
        <mxCell id="vgpXesxMThB6djMiU0Mu-12" style="edgeStyle=orthogonalEdgeStyle;rounded=0;orthogonalLoop=1;jettySize=auto;html=1;entryX=0.5;entryY=1;entryDx=0;entryDy=0;entryPerimeter=0;" parent="1" source="vgpXesxMThB6djMiU0Mu-7" target="vgpXesxMThB6djMiU0Mu-5" edge="1">
          <mxGeometry relative="1" as="geometry" />
        </mxCell>
        <mxCell id="vgpXesxMThB6djMiU0Mu-13" style="edgeStyle=orthogonalEdgeStyle;rounded=0;orthogonalLoop=1;jettySize=auto;html=1;entryX=0.75;entryY=1;entryDx=0;entryDy=0;entryPerimeter=0;" parent="1" source="vgpXesxMThB6djMiU0Mu-6" target="vgpXesxMThB6djMiU0Mu-5" edge="1">
          <mxGeometry relative="1" as="geometry" />
        </mxCell>
        <mxCell id="vgpXesxMThB6djMiU0Mu-19" style="edgeStyle=orthogonalEdgeStyle;rounded=0;orthogonalLoop=1;jettySize=auto;html=1;entryX=0;entryY=0.5;entryDx=0;entryDy=0;entryPerimeter=0;" parent="1" source="vgpXesxMThB6djMiU0Mu-3" target="vgpXesxMThB6djMiU0Mu-5" edge="1">
          <mxGeometry relative="1" as="geometry" />
        </mxCell>
        <mxCell id="vgpXesxMThB6djMiU0Mu-20" style="edgeStyle=orthogonalEdgeStyle;rounded=0;orthogonalLoop=1;jettySize=auto;html=1;entryX=0.5;entryY=1;entryDx=0;entryDy=0;entryPerimeter=0;" parent="1" source="vgpXesxMThB6djMiU0Mu-5" target="vgpXesxMThB6djMiU0Mu-8" edge="1">
          <mxGeometry relative="1" as="geometry" />
        </mxCell>
        <mxCell id="vgpXesxMThB6djMiU0Mu-22" value="Domain: HomeLab&lt;div&gt;Network: 192.168.1.0/24&lt;/div&gt;&lt;div&gt;Splunk Server: 192.168.1.10&lt;/div&gt;&lt;div&gt;Active Directory 192.168.1.5&lt;/div&gt;&lt;div&gt;Proxmox 192.168.1.69 (change)&lt;/div&gt;" style="text;html=1;align=center;verticalAlign=middle;resizable=0;points=[];autosize=1;strokeColor=none;fillColor=none;" parent="1" vertex="1">
          <mxGeometry x="5" y="-1090" width="190" height="90" as="geometry" />
        </mxCell>
        <mxCell id="vgpXesxMThB6djMiU0Mu-24" style="rounded=0;orthogonalLoop=1;jettySize=auto;html=1;entryX=0.5;entryY=1;entryDx=0;entryDy=0;entryPerimeter=0;dashed=1;endArrow=none;endFill=0;" parent="1" source="vgpXesxMThB6djMiU0Mu-3" target="vgpXesxMThB6djMiU0Mu-1" edge="1">
          <mxGeometry relative="1" as="geometry" />
        </mxCell>
        <mxCell id="vgpXesxMThB6djMiU0Mu-25" value="Setup syslog on pfsense to forward logs to spluink" style="text;html=1;align=center;verticalAlign=middle;whiteSpace=wrap;rounded=0;" parent="1" vertex="1">
          <mxGeometry x="580" y="-890" width="60" height="30" as="geometry" />
        </mxCell>
      </root>
    </mxGraphModel>
  </diagram>
</mxfile>
